# xmcd CD database file
#
# Track frame offsets:
#	150
#	21110
#	40092
#	58015
#	78449
#	96707
#	115466
#	134058
#	152316
#	169125
#	185906
#	204581
#	222950
#
# Disc length: 3114 seconds
#
# Revision: 23
# Processed by: cddbd v1.5.2PL0 Copyright (c) Steve Scherf et al.
# Submitted via: CDex 1.50
#
DISCID=bf0c280d
DTITLE=Eros Ramazzotti - 9
DYEAR=2003
DGENRE=Pop
TTITLE0=Un Segundo de Paz
TTITLE1=Solo Ayer
TTITLE2=Una Emoción Para Siempre
TTITLE3=Revivirte Otra Vez
TTITLE4=La Noche Son Tus Ojos
TTITLE5=Un Ancla en el Viento
TTITLE6=Piedra Pequeña
TTITLE7=Mamará, Una Gran Mujer
TTITLE8=El Hombre Que Miraba las Nubes
TTITLE9=Cancion Para Ella
TTITLE10=No Te Prometo Nada
TTITLE11=Falsa Salida
TTITLE12=Hay Una Melodia
EXTD=YEAR: 2003
EXTT0=
EXTT1=
EXTT2=
EXTT3=
EXTT4=
EXTT5=
EXTT6=
EXTT7=
EXTT8=
EXTT9=
EXTT10=
EXTT11=
EXTT12=
PLAYORDER=
